<svg width="146" height="65" viewBox="0 0 146 65" fill="none" xmlns="http://www.w3.org/2000/svg">
<path d="M63.45 13.5H71.465V38H63.45V13.5ZM73.075 38H68.77V31.35H72.725C73.4017 31.35 74.09 31.2917 74.79 31.175C75.49 31.0583 76.1317 30.8133 76.715 30.44C77.2983 30.0667 77.765 29.5067 78.115 28.76C78.4883 28.0133 78.675 27.01 78.675 25.75C78.675 24.49 78.4883 23.4867 78.115 22.74C77.765 21.9933 77.2983 21.4333 76.715 21.06C76.1317 20.6867 75.49 20.4417 74.79 20.325C74.09 20.2083 73.4017 20.15 72.725 20.15H68.77V13.5H73.075C75.9217 13.5 78.36 13.99 80.39 14.97C82.4433 15.95 84.0067 17.35 85.08 19.17C86.1767 20.99 86.725 23.1833 86.725 25.75C86.725 28.2933 86.1767 30.4867 85.08 32.33C84.0067 34.15 82.4433 35.55 80.39 36.53C78.36 37.51 75.9217 38 73.075 38ZM96.9677 25.75C96.9677 26.94 97.1894 27.99 97.6327 28.9C98.076 29.81 98.706 30.5217 99.5227 31.035C100.339 31.525 101.319 31.77 102.463 31.77C103.606 31.77 104.586 31.525 105.403 31.035C106.219 30.5217 106.849 29.81 107.293 28.9C107.736 27.99 107.958 26.94 107.958 25.75C107.958 24.5367 107.748 23.4867 107.328 22.6C106.908 21.69 106.289 20.99 105.473 20.5C104.679 19.9867 103.676 19.73 102.463 19.73C101.319 19.73 100.339 19.9867 99.5227 20.5C98.706 20.99 98.076 21.69 97.6327 22.6C97.1894 23.4867 96.9677 24.5367 96.9677 25.75ZM88.8127 25.75C88.8127 23.79 89.1627 22.0167 89.8627 20.43C90.5627 18.8433 91.531 17.4783 92.7677 16.335C94.0044 15.1917 95.451 14.3167 97.1077 13.71C98.7644 13.1033 100.549 12.8 102.463 12.8C104.423 12.8 106.231 13.1033 107.888 13.71C109.544 14.3167 110.991 15.1917 112.228 16.335C113.464 17.4783 114.421 18.8433 115.098 20.43C115.774 22.0167 116.113 23.79 116.113 25.75C116.113 27.71 115.774 29.5067 115.098 31.14C114.444 32.75 113.511 34.15 112.298 35.34C111.084 36.53 109.638 37.44 107.958 38.07C106.301 38.7233 104.469 39.05 102.463 39.05C100.456 39.05 98.6127 38.7233 96.9327 38.07C95.276 37.44 93.841 36.53 92.6277 35.34C91.4144 34.15 90.4694 32.75 89.7927 31.14C89.1394 29.5067 88.8127 27.71 88.8127 25.75ZM126.677 25.75C126.677 27.01 126.957 28.0717 127.517 28.935C128.101 29.775 128.859 30.405 129.792 30.825C130.749 31.245 131.799 31.455 132.942 31.455C134.109 31.455 135.112 31.3033 135.952 31C136.792 30.6967 137.527 30.3233 138.157 29.88C138.811 29.4133 139.394 28.935 139.907 28.445V36.355C138.951 37.0083 137.901 37.5567 136.757 38C135.637 38.4667 134.179 38.7 132.382 38.7C130.259 38.7 128.322 38.3967 126.572 37.79C124.822 37.1833 123.329 36.3083 122.092 35.165C120.856 34.0217 119.899 32.6567 119.222 31.07C118.546 29.4833 118.207 27.71 118.207 25.75C118.207 23.79 118.546 22.0167 119.222 20.43C119.899 18.8433 120.856 17.4783 122.092 16.335C123.329 15.1917 124.822 14.3167 126.572 13.71C128.322 13.1033 130.259 12.8 132.382 12.8C134.179 12.8 135.637 13.0217 136.757 13.465C137.901 13.9083 138.951 14.4683 139.907 15.145V23.055C139.394 22.565 138.811 22.0867 138.157 21.62C137.527 21.1533 136.792 20.78 135.952 20.5C135.112 20.1967 134.109 20.045 132.942 20.045C131.799 20.045 130.749 20.255 129.792 20.675C128.859 21.095 128.101 21.7367 127.517 22.6C126.957 23.44 126.677 24.49 126.677 25.75ZM76.4 57.338L80.778 44.6H82.12L76.422 60.594L71.714 47.328L67.006 60.594L61.308 44.6H62.65L67.094 57.338L71.714 44.006L76.4 57.338ZM93.8685 54.83L94.2645 53.686H101.371L101.767 54.83H93.8685ZM97.7845 46.8L94.7925 54.082L94.6605 54.346L92.3505 60H90.9865L97.7845 44.006L104.583 60H103.219L100.931 54.434L100.821 54.148L97.7845 46.8ZM117.139 44.6H118.349V60H117.139V44.6ZM131.015 45.744V44.6H140.321V45.744H136.273V60H135.063V45.744H131.015Z" fill="white"/>
<path d="M27.484 59.7184H22.2344C20.4739 59.7154 18.7863 59.0147 17.5415 57.7697C16.2966 56.5247 15.596 54.837 15.593 53.0763V44.0457L6.64415 44.1264C4.88317 44.1242 3.19491 43.4238 1.94945 42.1787C0.703987 40.9336 0.00294586 39.2455 0 37.4843V32.2341C0.00220965 30.4724 0.702926 28.7836 1.94847 27.5379C3.19401 26.2922 4.88269 25.5914 6.64415 25.5892H15.6737L15.593 16.6421C15.596 14.8814 16.2966 13.1937 17.5415 11.9487C18.7863 10.7037 20.4739 10.0029 22.2344 10H27.484C29.2445 10.0029 30.932 10.7037 32.1769 11.9487C33.4218 13.1937 34.1224 14.8814 34.1254 16.6421V25.6727L43.0742 25.5892C44.8357 25.5914 46.5244 26.2922 47.7699 27.5379C49.0155 28.7836 49.7162 30.4724 49.7184 32.2341V37.4843C49.7154 39.2455 49.0144 40.9336 47.7689 42.1787C46.5235 43.4238 44.8352 44.1242 43.0742 44.1264H34.0446L34.1226 53.0763C34.1196 54.8365 33.4194 56.5238 32.1751 57.7687C30.9308 59.0136 29.244 59.7147 27.484 59.7184ZM6.64415 28.373C5.62091 28.3752 4.64021 28.7827 3.91668 29.5063C3.19314 30.2299 2.78568 31.2107 2.78347 32.2341V37.4843C2.78641 38.5072 3.19419 39.4873 3.91765 40.2103C4.64111 40.9333 5.62139 41.3404 6.64415 41.3426H15.6737C16.029 41.3419 16.3809 41.4113 16.7093 41.5468C17.0377 41.6824 17.3361 41.8814 17.5875 42.1325C17.8388 42.3836 18.0381 42.6819 18.174 43.0102C18.3099 43.3385 18.3796 43.6904 18.3793 44.0457V53.0763C18.3822 54.0987 18.7896 55.0783 19.5125 55.8013C20.2353 56.5242 21.2149 56.9317 22.2372 56.9346H27.4868C28.5091 56.9317 29.4886 56.5242 30.2115 55.8013C30.9343 55.0783 31.3417 54.0987 31.3447 53.0763V44.0457C31.3443 43.6904 31.4141 43.3385 31.5499 43.0102C31.6858 42.6819 31.8851 42.3836 32.1365 42.1325C32.3878 41.8814 32.6862 41.6824 33.0146 41.5468C33.343 41.4113 33.6949 41.3419 34.0502 41.3426H43.077C44.0998 41.3404 45.08 40.9333 45.8035 40.2103C46.527 39.4873 46.9347 38.5072 46.9377 37.4843V32.2341C46.9355 31.2102 46.5276 30.229 45.8035 29.5053C45.0794 28.7816 44.098 28.3744 43.0742 28.373H34.0446C33.6896 28.3737 33.3379 28.3044 33.0097 28.169C32.6815 28.0337 32.3832 27.8349 32.1319 27.5841C31.8806 27.3332 31.6812 27.0353 31.5452 26.7073C31.4091 26.3794 31.3391 26.0278 31.3391 25.6727V16.6421C31.3362 15.6202 30.9292 14.6409 30.2069 13.9181C29.4846 13.1952 28.5058 12.7875 27.484 12.7838H22.2344C21.2121 12.7867 20.2325 13.1942 19.5097 13.9171C18.7868 14.64 18.3794 15.6197 18.3765 16.6421V25.6727C18.3765 26.0278 18.3065 26.3794 18.1704 26.7073C18.0344 27.0353 17.835 27.3332 17.5837 27.5841C17.3324 27.8349 17.0341 28.0337 16.7059 28.169C16.3777 28.3044 16.026 28.3737 15.6709 28.373H6.64415Z" fill="white"/>
</svg>
